<mxfile host="app.diagrams.net" modified="2023-04-17T23:56:11.697Z" agent="Mozilla/5.0 (Windows NT 10.0; Win64; x64; rv:109.0) Gecko/20100101 Firefox/111.0" version="21.1.2" etag="9R41f7t9ayGSfStZYBxi" type="github">
  <diagram name="Page-1" id="mzd3A_V9QHp0sg4eXbsy">
    <mxGraphModel>
      <root>
        <mxCell id="0" />
        <mxCell id="1" parent="0" />
      </root>
    </mxGraphModel>
  </diagram>
</mxfile>
